P2
5 5
255
207 207 207 15 15 
15 15 207 15 15 
15 15 207 15 15 
15 15 207 15 15 
15 15 207 207 207 
